# xmcd
#
# Track frame offsets: 
#        150
#        11212
#        22870
#        36780
#        49450
#        60957
#        73685
#        82190
#        96857
#        109230
#        121052
#        131395
#
# Disc length: 1929 seconds
#
# Revision: 1
# Processed by: cddbd v1.5.2PL0 Copyright (c) Steve Scherf et al.
# Submitted via: ExactAudioCopy v1.1
#
DISCID=9c07870c
DTITLE=Dave Dudley - More Dudley
DYEAR=1987
DGENRE=Country
TTITLE0=Mama's Town
TTITLE1=Proffessional Bum
TTITLE2=Just Memories
TTITLE3=Charlie's Rodeo Band
TTITLE4=Come And Gone
TTITLE5=Fantastic Memory
TTITLE6=Sleepy Eyed John
TTITLE7=(Rollin' In My) Sweet Baby's Arms
TTITLE8=That Magic Song
TTITLE9=Wanderin' Truck Drivin' Man
TTITLE10=Gas Pump Jockey
TTITLE11=It Wasn't A Good Year
EXTD=YEAR: 1987
EXTT0=
EXTT1=
EXTT2=
EXTT3=
EXTT4=
EXTT5=
EXTT6=
EXTT7=
EXTT8=
EXTT9=
EXTT10=
EXTT11=
PLAYORDER=
